<?xml version="1.0" encoding="UTF-8"?>
<svg xmlns="http://www.w3.org/2000/svg" viewBox="0 0 512 512">
  <!-- Background -->
  <rect x="0" y="0" width="512" height="512" rx="0" fill="#2e7d32" />
  
  <!-- Circular background for logo -->
  <circle cx="256" cy="220" r="120" fill="#ffffff" />
  
  <!-- Rupee symbol as path instead of text -->
  <path d="M226,220h60v15h-45c30,15 45,30 45,60c0,30 -15,45 -45,60h45v15h-60v30h-30v-30h-45v-15h45c-30,-15 -45,-30 -45,-60c0,-30 15,-45 45,-60h-45v-15h45v-30h30v30z" fill="#c62828" />

  <!-- App name as path -->
  <path d="M150,400h-20v-40h20c10,0 20,5 20,15v10c0,10 -10,15 -20,15zM150,370h-10v20h10c5,0 10,-2 10,-10c0,-8 -5,-10 -10,-10z" fill="#ffffff" />
  <path d="M180,400v-40h30c10,0 15,5 15,15c0,5 -2,10 -7,12c5,2 7,7 7,12c0,10 -5,15 -15,15h-30zM190,375h20c5,0 8,-2 8,-7c0,-5 -3,-7 -8,-7h-20v14zM190,390h20c5,0 8,-2 8,-7c0,-5 -3,-7 -8,-7h-20v14z" fill="#ffffff" />
  <path d="M235,400v-40h15c10,0 20,5 20,20c0,15 -10,20 -20,20h-15zM245,370v20h5c5,0 10,-2 10,-10c0,-8 -5,-10 -10,-10h-5z" fill="#ffffff" />
  <path d="M290,400v-40h-15v-10h40v10h-15v40z" fill="#ffffff" />
  
  <path d="M330,400v-50h10v20h20v-20h10v50h-10v-20h-20v20z" fill="#ffffff" />
  <path d="M385,400v-50h10v20h20v-20h10v50h-10v-20h-20v20z" fill="#ffffff" />
  <path d="M440,400l-10,-50h10l5,40l10,-40h10l10,40l5,-40h10l-10,50h-10l-10,-40l-10,40z" fill="#ffffff" />
  
  <!-- Tagline as path -->
  <path d="M175,440v-20h6c4,0 8,2 8,10s-4,10 -8,10h-6zM179,436h2c2,0 4,-1 4,-6s-2,-6 -4,-6h-2v12z" fill="#f0f0f0" />
  <path d="M195,440v-20h12v4h-8v4h6v4h-6v4h8v4z" fill="#f0f0f0" />
  <path d="M215,440v-20h6c4,0 6,2 6,6c0,2 -1,4 -3,5c2,1 3,3 3,5c0,4 -2,6 -6,6h-6zM219,428h2c1,0 2,-1 2,-2s-1,-2 -2,-2h-2v4zM219,436h2c1,0 2,-1 2,-2s-1,-2 -2,-2h-2v4z" fill="#f0f0f0" />
  <path d="M235,440v-20h4v20z" fill="#f0f0f0" />
  <path d="M248,440v-20h4v16h8v4z" fill="#f0f0f0" />
  
  <path d="M273,440l-6,-20h4l4,16l4,-16h4l-6,20z" fill="#f0f0f0" />
  <path d="M290,440v-20h4v20z" fill="#f0f0f0" />
  <path d="M305,440v-20h12v4h-8v4h6v4h-6v4h8v4z" fill="#f0f0f0" />
  <path d="M325,440v-20h4v20z" fill="#f0f0f0" />
  <path d="M340,440v-16h-4v-4h12v4h-4v16z" fill="#f0f0f0" />
  <path d="M355,440v-20h12v4h-8v4h6v4h-6v4h8v4z" fill="#f0f0f0" />
</svg>
