<?xml version="1.0" encoding="UTF-8" standalone="no"?>
<!DOCTYPE svg PUBLIC "-//W3C//DTD SVG 1.1//EN" "http://www.w3.org/Graphics/SVG/1.1/DTD/svg11.dtd">
<svg width="456" height="456" viewBox="0 0 456 456" version="1.1" xmlns="http://www.w3.org/2000/svg" xmlns:xlink="http://www.w3.org/1999/xlink" xml:space="preserve" xmlns:serif="http://www.serif.com/" style="fill-rule:evenodd;clip-rule:evenodd;stroke-linejoin:round;stroke-miterlimit:2;">
    <!-- Background -->
    <rect x="0" y="0" width="456" height="456" fill="#2e7d32" />
    
    <!-- Circular background -->
    <circle cx="228" cy="200" r="120" fill="#ffffff" />
    
    <!-- Rupee symbol -->
    <path d="M 198,140 h 60 v 15 h -45 c 30,15 45,30 45,60 c 0,30 -15,45 -45,60 h 45 v 15 h -60 v 30 h -30 v -30 h -45 v -15 h 45 c -30,-15 -45,-30 -45,-60 c 0,-30 15,-45 45,-60 h -45 v -15 h 45 v -30 h 30 v 30 z" style="fill:#c62828;fill-rule:nonzero" />
    
    <!-- App name -->
    <text x="228" y="380" font-family="Arial" font-weight="bold" font-size="36" text-anchor="middle" fill="#ffffff">DESI KHATA</text>
    
    <!-- Tagline -->
    <text x="228" y="420" font-family="Arial" font-size="24" text-anchor="middle" fill="#f0f0f0">Digital Ledger System</text>
    <path d="M 366.56466,194.72106 H 338.7222 v 85.3634 h -16.08423 v -85.3634 h -27.77455 v -13.99669 h 71.70124 z" style="fill:#ffffff;fill-rule:nonzero;stroke-width:0.838376" />
</svg>