<?xml version="1.0" encoding="UTF-8" standalone="no"?>
<svg width="256" height="256" viewBox="0 0 256 256" version="1.1" xmlns="http://www.w3.org/2000/svg">
  <!-- Background -->
  <rect x="0" y="0" width="256" height="256" rx="40" fill="#2e7d32" />
  
  <!-- Ledger book styling -->
  <rect x="45" y="50" width="166" height="156" rx="8" fill="#fff" />
  
  <!-- Pages -->
  <rect x="50" y="60" width="156" height="136" rx="3" fill="#f5f5f5" />
  
  <!-- Document lines -->
  <line x1="60" y1="80" x2="195" y2="80" stroke="#ddd" stroke-width="2" />
  <line x1="60" y1="100" x2="195" y2="100" stroke="#ddd" stroke-width="2" />
  <line x1="60" y1="120" x2="195" y2="120" stroke="#ddd" stroke-width="2" />
  <line x1="60" y1="140" x2="195" y2="140" stroke="#ddd" stroke-width="2" />
  <line x1="60" y1="160" x2="195" y2="160" stroke="#ddd" stroke-width="2" />
  <line x1="60" y1="180" x2="195" y2="180" stroke="#ddd" stroke-width="2" />

  <!-- Rupee symbol -->
  <path d="M 108,90 h 40 v 10 h -30 c 20,10 30,20 30,40 c 0,20 -10,30 -30,40 h 30 v 10 h -40 v 20 h -20 v-20 h -30 v-10 h 30 c -20,-10 -30,-20 -30,-40 c 0,-20 10,-30 30,-40 h -30 v-10 h 30 v-20 h 20 v 20 z" fill="#c62828" />
</svg>
