<?xml version="1.0" encoding="UTF-8" standalone="no"?>
<svg width="120" height="120" viewBox="0 0 120 120" version="1.1" xmlns="http://www.w3.org/2000/svg">
  <!-- Background -->
  <rect x="0" y="0" width="120" height="120" rx="20" fill="#2e7d32" />
  
  <!-- Ledger book styling -->
  <rect x="20" y="20" width="80" height="80" rx="5" fill="#fff" />
  
  <!-- Pages -->
  <rect x="25" y="25" width="70" height="70" rx="2" fill="#f5f5f5" />
  
  <!-- Document lines -->
  <line x1="30" y1="40" x2="90" y2="40" stroke="#ddd" stroke-width="1" />
  <line x1="30" y1="55" x2="90" y2="55" stroke="#ddd" stroke-width="1" />
  <line x1="30" y1="70" x2="90" y2="70" stroke="#ddd" stroke-width="1" />
  <line x1="30" y1="85" x2="90" y2="85" stroke="#ddd" stroke-width="1" />

  <!-- Rupee symbol -->
  <path d="M 50,45 h 20 v 5 h -15 c 10,5 15,10 15,20 c 0,10 -5,15 -15,20 h 15 v 5 h -20 v 10 h -10 v-10 h -15 v-5 h 15 c -10,-5 -15,-10 -15,-20 c 0,-10 5,-15 15,-20 h -15 v-5 h 15 v-10 h 10 v 10 z" fill="#c62828" />
</svg>
