<?xml version="1.0" encoding="UTF-8"?>
<svg xmlns="http://www.w3.org/2000/svg" viewBox="0 0 512 512">
  <!-- Background -->
  <rect x="0" y="0" width="512" height="512" rx="100" fill="#2e7d32" />
  
  <!-- Ledger book styling -->
  <rect x="90" y="100" width="332" height="312" rx="15" fill="#fff" />
  
  <!-- Pages -->
  <rect x="100" y="120" width="312" height="272" rx="5" fill="#f5f5f5" />
  
  <!-- Document lines -->
  <line x1="120" y1="160" x2="390" y2="160" stroke="#ddd" stroke-width="3" />
  <line x1="120" y1="200" x2="390" y2="200" stroke="#ddd" stroke-width="3" />
  <line x1="120" y1="240" x2="390" y2="240" stroke="#ddd" stroke-width="3" />
  <line x1="120" y1="280" x2="390" y2="280" stroke="#ddd" stroke-width="3" />
  <line x1="120" y1="320" x2="390" y2="320" stroke="#ddd" stroke-width="3" />
  <line x1="120" y1="360" x2="390" y2="360" stroke="#ddd" stroke-width="3" />

  <!-- Rupee symbol as path instead of text -->
  <path d="M242,130h40v10h-30c20,10 30,20 30,40c0,20 -10,30 -30,40h30v10h-40v20h-20v-20h-30v-10h30c-20,-10 -30,-20 -30,-40c0,-20 10,-30 30,-40h-30v-10h30v-20h20v20z" fill="#c62828" />
</svg>
